<svg width="232" height="200" viewBox="0 0 232 200" fill="none" xmlns="http://www.w3.org/2000/svg">
<path d="M61.5731 122.266C54.6144 119.88 47.9142 116.801 41.5738 113.076C44.2256 109.894 44.7353 102.477 42.9846 101.028C41.3626 99.6813 39.8025 102.57 38.7211 106.024C38.608 105.92 38.4894 105.822 38.3658 105.731C36.8932 101.763 33.2167 97.1371 30.7966 98.0211C29.3909 98.5351 29.5299 100.843 30.4619 103.372C27.8873 100.802 24.3396 98.6225 22.5889 99.6453C20.3747 100.941 23.8195 105.063 27.4239 107.576C26.4971 109.478 26.9553 112.125 28.0315 113.384C30.1735 115.887 32.2281 117.11 34.0612 117.496V117.532C35.8891 120.96 45.5747 128.911 52.2582 131.409C59.7451 134.195 64.5596 123.304 61.5731 122.266Z" fill="#B71C1C"/>
<path d="M19.9791 108.393C18.9493 110.691 25.0407 114.468 26.0757 112.166C27.1107 109.863 21.0707 105.942 19.9791 108.393Z" fill="#B71C1C"/>
<path d="M180.874 12.5617C178.15 9.81703 174.648 8.16715 171.502 8.15687C169.607 8.10305 167.768 8.80177 166.389 10.0997C165.735 10.7707 165.223 11.5659 164.882 12.4381C164.541 13.3104 164.38 14.2421 164.407 15.1778C164.416 16.3573 164.618 17.5273 165.004 18.6421C161.564 19.4542 158.166 21.1143 157.713 23.2371C157.522 24.1365 158.228 25.4626 159.438 26.6961C153.449 23.7253 146.143 22.425 140.345 23.0366C130.046 24.116 115.763 37.2173 116.715 43.4365C118.172 52.9194 154.201 66.8586 162.192 63.1168C167.97 60.4132 173.217 45.3588 169.757 36.6879C168.54 33.8535 166.584 31.3969 164.093 29.5744C164.89 29.8243 165.723 29.9406 166.559 29.9188C168.052 29.8623 169.726 28.3769 171.003 26.47C172.547 27.5889 174.308 28.3764 176.172 28.7829C176.833 28.9174 177.506 28.9863 178.181 28.9885C179.116 29.0317 180.05 28.8796 180.923 28.5421C181.796 28.2045 182.588 27.6889 183.25 27.0281C183.912 26.3673 184.429 25.576 184.767 24.7046C185.105 23.8332 185.258 22.901 185.214 21.9675C185.23 18.8168 183.603 15.3012 180.874 12.5617ZM181.013 24.7944C180.075 25.7196 178.577 26.0331 176.801 25.6785C175.219 25.326 173.738 24.6234 172.465 23.6225C173.263 21.5101 173.356 19.4799 172.105 18.6523C171.353 18.1384 169.89 17.9996 168.181 18.1384C167.795 17.2017 167.589 16.2009 167.573 15.1881C167.53 14.6677 167.602 14.1442 167.782 13.6539C167.962 13.1637 168.247 12.7185 168.617 12.3493C168.987 11.98 169.433 11.6956 169.924 11.5157C170.415 11.3358 170.94 11.2648 171.461 11.3076C173.783 11.3076 176.456 12.6182 178.603 14.7821C180.75 16.9459 182.037 19.6238 182.032 21.947C182.079 22.9937 181.711 24.0167 181.007 24.7944H181.013Z" fill="#FDC300"/>
<path d="M63.3498 141.591C60.1007 136.729 46.5636 134.036 41.6925 134.468C30.936 135.413 18.6861 148.931 16.8582 157.705C16.2763 160.48 19.3195 163.944 20.7406 161.585C22.1618 159.226 30.6476 148.623 41.3372 147.194C50.7293 145.914 58.489 157.078 66.0943 158.758C73.6996 160.439 66.1922 145.842 63.3498 141.591Z" fill="#B71C1C"/>
<path d="M49.8799 134.663C49.8799 134.663 50.6523 142.707 50.2918 147.667C58.721 155.556 69.2561 159.236 69.2561 159.236C69.2561 159.236 70.8369 147.142 64.8073 140.219C61.8877 136.909 53.51 134.807 49.8799 134.663Z" fill="black"/>
<path d="M91.0469 164.325C91.0469 159.257 105.31 152.884 109.944 155.196C111.762 156.101 108.58 174.728 114.038 179.24C119.496 183.753 128.584 177.426 130.855 175.159C133.126 172.893 136.004 177.164 133.78 180.813C130.139 186.709 114.064 195.313 102.699 187.603C94.986 182.355 91.0469 170.128 91.0469 164.325Z" fill="#B71C1C"/>
<path d="M95.7069 174.594C93.5854 171.454 91.0469 158.923 91.0469 156.959C91.0469 153.197 108.765 151.819 109.615 156.091C110.346 159.724 111.829 169.105 111.123 171.844C105.974 175.36 97.6893 175.632 95.7069 174.594Z" fill="black"/>
<path d="M62.5157 157.545C55.0495 150.452 45.0344 124.579 56.2029 95.9858C67.1345 67.9996 88.2512 56.728 100.393 57.6995C109.589 58.4293 128.677 66.1801 136.437 73.453C142.745 79.3586 149.624 98.4016 145.664 119.012C140.566 145.554 122.22 160.3 104.507 165.183C88.2511 169.66 70.1622 164.813 62.5157 157.545Z" fill="#038CCA"/>
<path d="M106.546 65.9796C90.3162 59.5652 69.1068 77.683 61.5479 106.219C56.3472 125.853 59.7972 148.545 73.2055 152.436C85.6253 156.034 104.744 145.508 113.534 122.8C118.765 109.272 123.703 72.7693 106.546 65.9796Z" fill="white"/>
<path d="M79.9917 94.7882C94.3115 83.6708 107.56 119.809 103.302 136.534C100.387 147.96 76.5933 158.398 68.3392 149.949C60.0851 141.499 65.9191 105.721 79.9917 94.7882Z" fill="#FFF6D9"/>
<path d="M6.65327 149.949C9.07852 149.949 15.4068 163.312 16.8537 165.584C18.3006 167.856 12.4924 174.183 11.5192 173.211C6.97252 168.693 4.0478 149.949 6.65327 149.949Z" fill="black"/>
<path d="M101.366 68.8427C105.593 70.0454 100.882 80.474 96.9944 79.5078C93.1068 78.5415 97.9676 67.8764 101.366 68.8427Z" fill="#038CCA"/>
<path d="M57.176 104.713C58.7568 98.4017 69.3177 103.747 67.8605 106.656C66.4033 109.565 56.208 108.589 57.176 104.713Z" fill="#038CCA"/>
<path d="M100.579 115.235C101.341 111.986 111.103 113.646 109.677 119.737C108.091 126.486 99.7856 118.611 100.579 115.235Z" fill="#038CCA"/>
<path d="M72.2272 146.875C68.9987 146.361 72.7112 134.026 76.1097 135.264C79.5081 136.503 76.1148 147.512 72.2272 146.875Z" fill="#038CCA"/>
<path d="M89.3892 102.041C95.7021 103.984 89.3377 117.316 84.0444 116.098C77.711 114.643 84.2555 100.468 89.3892 102.041Z" fill="#038CCA"/>
<path d="M78.6992 89.4327C78.6992 86.5236 82.5868 85.069 83.56 87.4899C84.5332 89.9107 88.9048 104.451 88.9048 106.877C88.9048 109.303 85.9904 110.269 84.5332 110.269C83.076 110.269 78.6992 89.4327 78.6992 89.4327Z" fill="#038CCA"/>
<path d="M124.347 85.5573C127.57 85.0999 127.746 89.4379 125.804 91.3756C123.863 93.3133 87.9272 110.275 86.4648 109.797C85.0025 109.319 86.9488 107.371 88.4061 105.433C89.8633 103.495 120.964 86.0456 124.347 85.5573Z" fill="#038CCA"/>
<path d="M134.748 172.086C133.769 169.809 138.146 165.779 140.576 166.751C143.007 167.722 144.943 184.683 143.97 185.655C142.43 187.186 136.2 175.478 134.748 172.086Z" fill="black"/>
<path d="M141.638 26.6603C144.995 28.0223 138.435 33.1159 134.903 32.1444C130.979 31.0651 136.927 24.7431 141.638 26.6603Z" fill="white"/>
<path d="M136.679 36.8677C136.473 38.0653 131.365 39.8539 131.715 37.8186C132.066 35.7832 137.076 34.5394 136.679 36.8677Z" fill="white"/>
<path d="M124.568 96.474C124.11 91.4061 142.775 99.3831 143.141 103.017C143.373 105.551 124.913 100.473 124.568 96.474Z" fill="white"/>
<path d="M129.285 107.381C129.285 105.561 139.115 105.926 139.48 109.56C139.846 113.194 129.285 109.925 129.285 107.381Z" fill="white"/>
<path d="M158.949 60.6496C156.807 64.3142 118.302 49.2238 120.722 43.7345C123.142 38.2452 162.09 55.2888 158.949 60.6496Z" fill="#CA9C00"/>
<path d="M109.636 60.1355C109.636 57.0105 139.856 72.4711 143.862 77.9449C147.425 82.7969 132.575 76.8605 128.204 74.3111C123.832 71.7618 109.636 62.6643 109.636 60.1355Z" fill="black"/>
<path d="M214.055 107.828C215.087 106.626 216.022 105.344 216.851 103.994C219.683 99.4193 221.578 87.9884 213.448 86.9964C202.547 85.6703 197.944 98.5661 198.34 105.962C186.883 106.6 171.158 108.404 167.306 109.673C163.609 110.881 162.378 120.056 165.03 121.659C166.76 122.687 183.866 119.788 196.538 117.188C198.417 127.308 213.53 139.165 222.026 129.626C228.869 121.937 222.68 111.678 214.055 107.828ZM211.409 96.1761C215.837 97.204 211.697 106.091 207.665 105.356C203.911 104.672 206.388 95.0145 211.409 96.1761ZM214.297 123.186C209.148 125.334 203.716 116.304 207.603 115.019C211.491 113.734 219.452 121.037 214.292 123.181L214.297 123.186Z" fill="#FDC300"/>
<path d="M167.554 112.048C170.334 112.048 169.098 119.243 166.524 119.243C163.949 119.243 165.53 112.048 167.554 112.048Z" fill="#CA9C00"/>
<path d="M151.936 136.38C147.193 130.464 133.357 126.789 129.13 127.256C125.572 127.652 117.287 139.109 121.118 140.584C126.267 142.558 137.647 143.102 137.08 147.682C136.287 153.994 124.043 153.598 116.535 152.02C116.511 152.019 116.487 152.019 116.463 152.02C110.917 151.043 101.103 152.087 101.129 156.754C101.129 157.859 103.266 158.332 106.098 158.332C103.951 160.388 103.111 162.958 105.068 164.248C107.2 165.666 109.702 163.014 112.184 161.02C112.765 161.702 113.427 162.312 114.156 162.834C112.812 166.19 112.612 170.832 114.527 171.058C115.665 171.207 118.065 167.974 119.13 164.839C120.365 165.018 121.623 164.943 122.827 164.618C125.026 164.011 126.046 162.731 126.21 161.215C132.595 160.701 141.73 158.928 146.925 156.075C157.466 150.314 156.678 142.296 151.936 136.38Z" fill="#B71C1C"/>
<path d="M108.606 149.265C110.696 145.785 118.482 150.447 116.113 153.207C113.745 155.967 107.442 151.234 108.606 149.265Z" fill="#B71C1C"/>
</svg>
