<svg width="152" height="200" viewBox="0 0 152 200" fill="none" xmlns="http://www.w3.org/2000/svg">
<path d="M113.065 82.605C115.44 83.465 116.275 77.465 115.24 76.315C114.205 75.165 110.68 81.75 113.065 82.605Z" fill="black"/>
<path d="M123.015 84.76C123.039 84.3995 123.01 84.0373 122.93 83.685C126.57 82.185 130.93 79.26 129.43 77.9C128.635 77.17 125.93 78.265 123.43 79.765C125.14 77.915 126.38 76.09 125.93 75.395C125.18 74.165 118.585 77.315 116.87 81.835C115.864 83.1814 114.75 84.4439 113.54 85.61C107.75 86.305 97.2898 88.145 95.4798 88.295C93.1548 88.495 92.4298 90.26 92.2398 92.55C92.0498 94.84 92.4598 98.05 93.6348 97.74C94.8098 97.43 112.285 90.545 112.285 90.545C112.285 90.545 112.675 90.635 113.245 90.705C114.06 91.085 115.305 91.285 117.145 91.16C118.985 91.035 120.79 89.69 121.89 87.9C124.445 88.4 129.255 85.85 128.955 84.8C128.67 83.645 125.39 83.905 123.015 84.76Z" fill="black"/>
<path d="M84.8946 24.065C81.1396 18.365 74.6846 12.65 65.5596 12.02C64.7296 10.98 63.0596 10.18 59.8896 10.08C54.1496 9.90003 54.1896 14.245 54.1896 14.245C54.2554 14.6295 54.4471 14.9813 54.7346 15.245C50.1696 18.96 47.7346 25.375 47.7796 32.195C47.8196 36.815 46.7496 40.695 56.8046 43.32C65.3546 45.54 87.0446 44.285 88.7546 34.91C89.1146 32.945 87.8246 28.5 84.8946 24.065Z" fill="#FDC300"/>
<path d="M106.425 89.275C106.425 89.275 94.8953 75.5 92.7503 74.315C90.6053 73.13 87.0903 73.315 87.0903 73.315C87.0903 73.315 84.2103 76.315 85.9203 79.73C87.3853 82.66 95.7703 92.05 98.7203 92.975C101.67 93.9 106.835 91.3 106.425 89.275Z" fill="black"/>
<path d="M51.0352 37.22C49.6802 32.92 56.8352 25.635 68.0952 25.25C79.5702 24.86 85.5952 27.55 85.5952 33.11C85.5952 36.765 78.0952 40.065 69.2852 41.32C54.8552 43.375 52.0102 40.325 51.0352 37.22Z" fill="#F57C00"/>
<path d="M62.8602 132.805C56.3602 133.305 29.4402 124.35 22.2652 96.135C16.8752 74.94 24.1752 53.3901 31.6552 47.9951C43.7602 39.2651 60.8852 34.8001 66.3652 32.9951C80.0552 28.4601 97.2502 45.4501 102.75 71.0301C108.35 96.9201 99.3902 115.14 89.7152 121.675C89.7502 121.67 71.4652 132.165 62.8602 132.805Z" fill="#B71C1C"/>
<path d="M71.5303 38.865C87.2703 38.415 96.8453 61.675 99.6053 73.83C104.465 95.2 95.7353 111.775 88.6053 115.025C75.6303 120.955 60.6453 102.11 55.9953 86.35C51.5603 71.275 56.5203 39.3 71.5303 38.865Z" fill="white"/>
<path d="M68.1346 160.8C69.3696 159.655 71.1896 158.11 71.1846 159.995C71.1796 161.88 69.2896 165.31 68.4546 165.16C67.6196 165.01 68.1346 160.8 68.1346 160.8Z" fill="black"/>
<path d="M70.8051 130.725C70.5951 128.605 80.2401 123.9 81.8401 124.53C83.4401 125.16 71.0501 133.155 70.8051 130.725Z" fill="black"/>
<path d="M148.66 155.115C147.04 155.725 136.31 160.52 133.25 160.31C130.56 160.12 128.215 156.09 128.215 156.09V156.12C125.47 143.94 116.215 113.06 115.93 111.08C115.595 108.715 115.225 104.635 113.74 104.365C112.255 104.095 104.55 109.62 102.41 111.54C100.27 113.46 79.3748 125.45 79.3748 125.45C79.3748 125.45 73.1148 129.345 73.0948 130.88C73.0748 132.415 75.9098 138.975 80.5098 137.41C79.3948 142.115 77.5598 148.2 74.8948 151.955C70.0748 158.765 74.1348 158.99 66.6498 160.7C59.1648 162.41 32.3798 164.03 28.2498 166C27.4756 166.372 26.7992 166.92 26.2748 167.6C24.6548 166.995 23.1748 166.6 22.6948 167.035C21.4798 168.095 19.8198 175.735 19.3248 178.46C18.8298 181.185 15.8248 190.155 16.1098 191.485C16.3948 192.815 17.8948 194.37 18.5698 190.65C19.2448 186.93 22.1198 182.925 23.5698 180.505C25.8198 176.75 29.4048 174.65 31.4848 173.69C40.8898 171.69 61.2598 166.47 69.7748 166.4C80.5448 166.31 76.7748 164.595 79.1448 159.9C81.0448 156.18 87.0948 144.4 89.0648 139.165C89.8448 137.095 91.2698 131.195 91.3148 128.28C96.4848 124.15 106.815 119.325 107.7 118.28C108.338 117.493 108.913 116.657 109.42 115.78C111.37 113.28 111.63 114.9 111.63 114.9C111.63 114.9 116.575 137.545 119.58 151.535C119.36 152.92 119.145 158.29 120.225 159.24C120.366 159.36 120.536 159.442 120.718 159.477C120.9 159.513 121.088 159.502 121.265 159.445C121.56 160.86 121.765 161.82 121.815 162.175C121.98 163.135 122.765 163.705 123.76 163.915C123.155 165.32 122.76 166.615 122.87 167.49C123.215 170.575 124.165 171.46 125.87 170.26C127.575 169.06 148.75 158 150.545 156.53C152.34 155.06 151.055 154.215 148.66 155.115Z" fill="black"/>
<path d="M31.2198 165.275C31.6198 163.04 36.5848 163.94 40.6898 163.92C44.7948 163.9 30.5898 168.745 30.5898 168.745L31.2198 165.275Z" fill="black"/>
<path d="M25.3853 82.47C26.1153 78.44 42.5903 73.64 44.7403 76.105C46.8903 78.57 24.8303 85.5 25.3853 82.47Z" fill="white"/>
<path d="M28.655 74.5C28.07 71.5 39.75 68.07 40.185 71.135C40.525 73.525 29.125 76.91 28.655 74.5Z" fill="white"/>
<path d="M61.0298 92.335C60.4298 86.755 69.2948 56.925 77.8248 57.17C86.3548 57.415 95.0048 78.49 95.1148 87.875C95.2248 97.26 91.7948 113.265 84.5198 113.245C77.2448 113.225 62.2848 104 61.0298 92.335Z" fill="#FFF9E6"/>
<path d="M79.49 69.435C81.99 69.035 84.4199 73.405 84.9399 75.74C85.4599 78.075 85.3199 80.96 83.2349 81.585C81.6549 82.085 79.2049 80.425 78.1999 77.165C77.5049 74.875 77.41 69.77 79.49 69.435Z" fill="black"/>
<path d="M71.7497 42.025C75.2497 41.36 77.6747 50.025 75.2797 50.465C71.6447 51.11 69.3197 42.5 71.7497 42.025Z" fill="black"/>
<path d="M85.2499 102.195C87.8549 102.145 88.6349 110.735 86.6099 111.145C84.5849 111.555 81.6899 102.255 85.2499 102.195Z" fill="black"/>
<path d="M58.2499 80.455C57.8849 76.68 64.0449 77.175 65.8299 79.23C67.6149 81.285 58.7049 85.08 58.2499 80.455Z" fill="black"/>
<path d="M97.3554 72.675C99.4104 75.675 93.4404 77.035 92.5854 75.32C91.7304 73.605 95.9754 70.68 97.3554 72.675Z" fill="black"/>
<path d="M58.4199 63.785C57.9199 62.385 59.5149 57.745 60.5249 57.925C61.5349 58.105 80.8399 72.02 82.5249 72.84C84.2099 73.66 83.2849 78.7 81.3599 77.84C79.4349 76.98 58.9399 65.185 58.4199 63.785Z" fill="black"/>
<path d="M87.1198 58.88C87.8048 57.965 90.6648 60.825 90.3448 62.59C90.0248 64.355 83.2148 78.95 83.2148 78.95L79.7148 75.195L87.1198 58.88Z" fill="black"/>
<path d="M70.2504 101.66C69.5654 101.12 68.0254 102.005 66.4454 103.345C68.9854 99.61 70.7504 95.095 69.3604 94.445C68.8604 94.2 67.9254 94.625 66.8604 95.445C67.0754 94.79 67.0804 94.275 66.8054 93.985C65.6904 92.825 63.2604 94.705 61.2504 96.705C60.0346 97.9264 58.9442 99.2664 57.9954 100.705C57.7804 98.855 57.2804 97.52 56.5904 97.67C54.9554 98.035 53.3554 103.47 53.4604 107.055C53.4604 107.115 53.4054 107.18 53.3804 107.24L53.4154 108.455C50.4154 109.525 34.4504 113.75 28.1354 115.065C31.0504 111.4 34.8604 106.595 38.1354 101.995C40.2004 99.105 41.6354 100.135 41.2904 96.83C41.0804 94.83 34.1404 92.61 31.3304 94.015C26.9354 96.21 28.9254 98.67 28.9254 98.67C28.9254 98.67 21.0354 110.605 19.9254 113.2C18.9254 115.55 17.2754 117.11 16.3604 119.435C15.7604 120.935 16.2554 122.23 17.0954 122.89C17.0746 123.261 17.0964 123.634 17.1604 124C17.5554 125.925 19.0754 126.5 24.7354 124.14C26.4204 123.44 54.7354 114.04 54.7354 114.04L55.4254 113.8C56.0054 114.225 56.6154 114.525 57.0904 114.405C59.8604 113.715 62.0404 111.405 63.3854 109.29C66.7004 108.365 71.2754 102.45 70.2504 101.66Z" fill="black"/>
<path d="M39.4454 41.105C44.9454 38.91 56.0904 36.24 56.4454 41.84C56.8504 48.52 51.8504 55.385 41.2504 61.055C21.7854 71.47 21.9004 63.115 21.9004 63.115C22.5883 60.1215 23.7712 57.2639 25.4004 54.66C27.3104 51.5 30.4954 44.685 39.4454 41.105Z" fill="#DE9797"/>
<path d="M48.6453 29.635C41.4153 22.405 29.0153 18.27 19.9053 21.675C20.0848 21.3284 20.166 20.9394 20.1403 20.55C20.0153 19.16 13.6403 15.47 10.9453 17.51C8.25033 19.55 8.02033 24.975 11.2353 25.56C12.2412 25.687 13.2625 25.6053 14.2353 25.32C6.27033 33.69 8.48033 54.41 13.3353 57.96C17.3353 60.885 29.5703 58.285 34.9103 56.14C47.1503 51.205 52.8753 45.345 53.8803 39.55C54.4503 36.26 51.2853 32.28 48.6453 29.635Z" fill="#FDC300"/>
<path d="M21.8752 28.535C25.2952 29.535 19.8352 37.835 17.0552 35.535C14.9252 33.805 19.5502 27.84 21.8752 28.535Z" fill="white"/>
<path d="M20.2503 40.7149C19.1553 38.1749 25.6553 36.645 25.5353 38.82C25.4153 40.88 21.1153 42.7249 20.2503 40.7149Z" fill="white"/>
<path d="M56.5499 19.7649C54.8999 17.3899 58.6099 15.1949 59.7999 16.1949C61.3799 17.4999 58.2049 22.1649 56.5499 19.7649Z" fill="white"/>
</svg>
